<svg width="512" height="512" viewBox="0 0 512 512" fill="none" xmlns="http://www.w3.org/2000/svg">
<path d="M311 512H120C75.8867 512 40 476.113 40 432V161C40 116.887 75.8867 81 120 81H311C355.113 81 391 116.887 391 161V432C391 476.113 355.113 512 311 512ZM120 121C97.9453 121 80 138.945 80 161V432C80 454.055 97.9453 472 120 472H311C333.055 472 351 454.055 351 432V161C351 138.945 333.055 121 311 121H120ZM471 382V80C471 35.8867 435.113 0 391 0H169C157.953 0 149 8.95312 149 20C149 31.0469 157.953 40 169 40H391C413.055 40 431 57.9453 431 80V382C431 393.047 439.953 402 451 402C462.047 402 471 393.047 471 382Z" fill="white"/>
</svg>
