<svg width="1000" height="1000" viewBox="0 0 1000 1000" fill="none" xmlns="http://www.w3.org/2000/svg">
<path d="M395 299.9C338.1 332.9 291.4 360.2 291.3 360.6C291.1 361.4 304.4 369.4 333.1 385.7L338.7 388.9L443 328.7C500.4 295.6 547.5 268 547.6 267.5C548 266.3 503.5 240.6 500.6 240.3C499.4 240.2 454.4 265.6 395 299.9Z" fill="#9D65C9"/>
<path d="M475 345.6C417.5 378.8 370.5 406.3 370.6 406.7C370.7 407.2 381.3 413.7 394.4 421.2L418 434.9L522.3 374.8C579.6 341.8 627.1 314.2 627.7 313.6C628.7 312.7 623.5 309.3 605.2 298.7C592.1 291.2 580.9 285 580.4 285.1C579.9 285.1 532.5 312.3 475 345.6Z" fill="#9D65C9"/>
<path d="M556.3 392.7C498.4 426.1 451.4 453.8 451.8 454.2C452.2 454.6 463 461 475.9 468.5L499.3 482L605.2 420.9C663.5 387.2 710.8 359.4 710.3 358.9C708.6 357.3 664 332 662.8 332C662.1 332 614.2 359.3 556.3 392.7Z" fill="#9D65C9"/>
<path d="M263 456.3V532.7L364 591.3C419.5 623.6 465.4 650 466 650C466.7 650 467 624.4 467 574.1V498.3L365.5 439.1C309.7 406.6 263.8 380 263.5 380C263.2 380 263 414.4 263 456.3Z" fill="#9D65C9"/>
<path d="M619 455C554.4 492.4 501.2 523.1 500.7 523.2C500.3 523.4 500.1 536.2 500.2 551.8L500.5 580L619 511.6L737.5 443.2L737.8 415.1C737.9 399.6 737.7 387 737.3 387C736.8 387.1 683.6 417.7 619 455Z" fill="#9D65C9"/>
<path d="M618.3 546.3L500 614.5V642.8V671.2L503.3 669.3C505 668.2 558.6 637.3 622.3 600.6L738 533.8V505.9C738 490.6 737.7 478 737.3 478C736.8 478 683.3 508.7 618.3 546.3Z" fill="#9D65C9"/>
<path d="M262.8 582.7C262.6 590.3 262.7 602.7 263 610.3L263.5 624L381.4 692.1C446.2 729.5 500 760 500.9 759.8C501.9 759.6 555.6 728.9 620.3 691.5L738 623.6V596.3C738 581.3 737.6 569 737.2 569C736.7 569 683.4 599.6 618.6 637C553.8 674.4 500.6 705 500.4 705C500.1 705 447.3 674.6 382.9 637.5C318.6 600.3 265.3 569.7 264.5 569.4C263.4 568.9 263.1 571.2 262.8 582.7Z" fill="#9D65C9"/>
</svg>
